<?xml version="1.0" standalone="no"?>
<!DOCTYPE svg PUBLIC "-//W3C//DTD SVG 20010904//EN"
 "http://www.w3.org/TR/2001/REC-SVG-20010904/DTD/svg10.dtd">
<svg version="1.0" xmlns="http://www.w3.org/2000/svg"
 width="260.000000pt" height="260.000000pt" viewBox="0 0 260.000000 260.000000"
 preserveAspectRatio="xMidYMid meet">
<metadata>
Created by potrace 1.14, written by Peter Selinger 2001-2017
</metadata>
<g transform="translate(0.000000,260.000000) scale(0.100000,-0.100000)"
fill="#000000" stroke="none">
<path d="M90 1480 l0 -200 140 0 140 0 0 -580 0 -580 230 0 230 0 0 580 0 580
140 0 140 0 0 200 0 200 -510 0 -510 0 0 -200z"/>
<path d="M1180 580 l0 -460 260 0 260 0 0 125 0 125 -120 0 -120 0 0 335 0
335 -140 0 -140 0 0 -460z"/>
</g>
</svg>
